<svg xmlns="http://www.w3.org/2000/svg" 
id="content2" width="1392" height="800" 
stroke="#ffffff"> 
    <line x1="0" y1="0" x2="500" y2="0"  />
    <line x1="0" y1="40" x2="500" y2="0" />
    <line x1="0" y1="80" x2="500" y2="0" />
    <line x1="0" y1="120" x2="500" y2="0" />
    <line x1="0" y1="160" x2="500" y2="0" />
    <line x1="0" y1="200" x2="500" y2="0" />
    <line x1="0" y1="240" x2="500" y2="0" />
    <line x1="0" y1="280" x2="500" y2="0" />
    <line x1="0" y1="320" x2="500" y2="0" />

    <line x1="0" y1="0" x2="1500" y2="300" stroke-dasharray="15" stroke-opacity="0.4" />
    <line x1="0" y1="40" x2="1500" y2="300" stroke-dasharray="15" stroke-opacity="0.4"/>
    <line x1="0" y1="80" x2="1500" y2="300" stroke-dasharray="15" stroke-opacity="0.4"/>
    <line x1="0" y1="120" x2="1500" y2="300" stroke-dasharray="15" stroke-opacity="0.4" />
    <line x1="0" y1="160" x2="1500" y2="300" stroke-dasharray="15" stroke-opacity="0.4"/>
    <line x1="0" y1="200" x2="1500" y2="300" stroke-dasharray="15" stroke-opacity="0.4"/>
    <line x1="0" y1="240" x2="1500" y2="300" stroke-dasharray="15" stroke-opacity="0.4"/>
    <line x1="0" y1="280" x2="1500" y2="300" stroke-dasharray="15" stroke-opacity="0.4"/>
    <line x1="0" y1="320" x2="1500" y2="300" stroke-dasharray="15"  stroke-opacity="0.4"/>

<!--<path stroke="#ffffff" stroke-dasharray="30" d="M -254.9 218.8 l 2006.1 -116.8 m 90 348.4 L 350.9 -100.3"/> <path stroke="#ffffff" stroke-dasharray="30" d="M -914.9 1121.1 l 2226.2 -103 m 99.9 307.3 L -242.7 839.7" transform="matrix(-1,0,0,-1,1336.3,1340.1)"/> <path stroke="#ffffff" stroke-dasharray="30" d="M -239.9 543.8 l 2006.1 -116.8 m 90 348.4 L 365.9 224.7"/> <path stroke="#ffffff" stroke-dasharray="30" d="M -914.9 806.1 l 2226.2 -103 m 99.9 307.3 L -242.7 524.7" transform="matrix(-1,0,0,-1,1336.3,1340.1)"/>-->
</svg>
